<svg preserveAspectRatio="none" width="100%" height="100%" overflow="visible" style="display: block;" viewBox="0 0 14 14" fill="none" xmlns="http://www.w3.org/2000/svg">
<g id="stack-fill">
<path id="Vector" d="M11.7153 6.12494L12.4165 6.5457C12.5546 6.62859 12.5994 6.80773 12.5165 6.94587C12.4919 6.98693 12.4575 7.02129 12.4165 7.04591L6.99994 10.2958L1.58346 7.04591C1.44534 6.96302 1.40054 6.78388 1.48342 6.64574C1.50805 6.60468 1.54241 6.57032 1.58346 6.5457L2.28468 6.12494L6.99994 8.95411L11.7153 6.12494ZM11.7153 8.86661L12.4165 9.28737C12.5546 9.37026 12.5994 9.5494 12.5165 9.68753C12.4919 9.7286 12.4575 9.76296 12.4165 9.78757L7.30007 12.8574C7.11532 12.9683 6.88456 12.9683 6.69982 12.8574L1.58346 9.78757C1.44534 9.70468 1.40054 9.52554 1.48342 9.38741C1.50805 9.34634 1.54241 9.31198 1.58346 9.28737L2.28468 8.86661L6.99994 11.6958L11.7153 8.86661ZM7.30007 0.763373L12.4165 3.8332C12.5546 3.91607 12.5994 4.09523 12.5165 4.23336C12.4919 4.27442 12.4575 4.30877 12.4165 4.3334L6.99994 7.58327L1.58346 4.3334C1.44534 4.25053 1.40054 4.07137 1.48342 3.93324C1.50805 3.89219 1.54241 3.85783 1.58346 3.8332L6.69982 0.763373C6.88456 0.65254 7.11532 0.65254 7.30007 0.763373Z" fill="var(--fill-0, white)"/>
</g>
</svg>
