<svg preserveAspectRatio="none" width="100%" height="100%" overflow="visible" style="display: block;" viewBox="0 0 14 14" fill="none" xmlns="http://www.w3.org/2000/svg">
<g id="thermometer-fill">
<path id="Vector" d="M11.6495 2.23897C12.5607 3.15019 12.5607 4.62757 11.6495 5.5388L6.86604 10.3223C6.49137 10.6969 6.00038 10.9329 5.47378 10.9914L3.50292 11.2097L2.16247 12.5509C1.93467 12.7788 1.56533 12.7788 1.33752 12.5509C1.10972 12.3231 1.10972 11.9538 1.33752 11.726L2.67808 10.3849L2.89705 8.41468C2.95556 7.8881 3.19154 7.39711 3.5662 7.02244L8.34963 2.23897C9.26086 1.32774 10.7383 1.32774 11.6495 2.23897ZM6.28726 7.60122L5.46231 8.42617L6.69973 9.66359L7.52468 8.83864L6.28726 7.60122ZM7.93716 5.95128L7.11221 6.77621L8.34963 8.01369L9.17464 7.18869L7.93716 5.95128ZM9.58712 4.30136L8.76217 5.12632L9.99959 6.36374L10.8245 5.5388L9.58712 4.30136Z" fill="var(--fill-0, white)"/>
</g>
</svg>
